Coordinates
version=1
nRows=13
nColumns=40
inDegrees=yes

Units are S.I. units (second, meters, Newtons, ...)
Angles are in degrees.

endheader
time	pelvis_tilt	pelvis_list	pelvis_rotation	pelvis_tx	pelvis_ty	pelvis_tz	hip_flexion_r	hip_adduction_r	hip_rotation_r	knee_angle_r	knee_angle_r_beta	ankle_angle_r	subtalar_angle_r	mtp_angle_r	hip_flexion_l	hip_adduction_l	hip_rotation_l	knee_angle_l	knee_angle_l_beta	ankle_angle_l	subtalar_angle_l	mtp_angle_l	lumbar_extension	lumbar_bending	lumbar_rotation	arm_flex_r	arm_add_r	arm_rot_r	elbow_flex_r	pro_sup_r	wrist_flex_r	wrist_dev_r	arm_flex_l	arm_add_l	arm_rot_l	elbow_flex_l	pro_sup_l	wrist_flex_l	wrist_dev_l
     48.14750000	     -1.48607706	     -4.40317925	      0.92119377	      0.97322377	      0.91527029	      0.39567916	     24.04777237	     -6.25233669	     -5.13380043	     63.90777251	     63.90777251	      6.99094367	    -18.64924874	     10.48328225	     18.44710412	     -1.56628911	     -1.25608627	     33.75176779	     33.75176779	     18.92779014	    -16.35219754	      2.59345744	    -10.51499631	      4.63882826	      2.84767135	     15.61311624	    -13.58405256	     -6.92089589	     40.66074936	     45.97347883	      0.00000000	      0.00000000	     22.42411846	    -12.09108001	     17.13563187	     34.28360161	     44.88187065	      0.00000000	      0.00000000
     48.16700000	     -1.37153409	     -4.53167127	      0.21887103	      0.97297587	      0.91503638	      0.39528738	     24.78194491	     -5.78020631	     -4.44226298	     62.50078656	     62.50078656	      7.15560375	    -18.50445055	      8.25852589	     17.98489017	     -1.73012022	     -1.58361031	     34.08461033	     34.08461033	     20.02346695	    -16.45007226	      4.30278945	    -10.64808691	      5.00610019	      2.18174462	     14.28541546	    -13.00486835	     -6.77094786	     35.44191304	     46.14913240	      0.00000000	      0.00000000	     23.40632290	    -12.83231693	     16.10012341	     36.15009871	     45.07625116	      0.00000000	      0.00000000
     48.18650000	     -1.30901641	     -4.70060535	     -0.55966909	      0.97271231	      0.91524878	      0.39535909	     25.48530361	     -5.17412569	     -3.76308463	     60.67267025	     60.67267025	      7.82099613	    -18.20368107	      7.68977383	     17.36444153	     -2.00669036	     -2.08920962	     33.99011438	     33.99011438	     20.37692996	    -16.62810463	      4.39499288	    -10.81341374	      5.41070320	      2.39124314	     11.37688401	    -13.08070100	     -6.69725386	     33.55439727	     46.19696537	      0.00000000	      0.00000000	     24.96306038	    -13.10453033	     15.53632290	     37.44286514	     45.17936082	      0.00000000	      0.00000000
     48.20600000	     -1.30782235	     -4.85953426	     -1.37228371	      0.97238196	      0.91596600	      0.39577867	     26.07323616	     -4.57816332	     -3.23138698	     58.32590291	     58.32590291	      8.41395094	    -17.78686247	      6.96924655	     16.64201005	     -2.29092655	     -2.66427786	     33.58884558	     33.58884558	     20.62833560	    -16.74157830	      4.55533489	    -10.95628965	      5.79527554	      2.49211765	      8.67288584	    -13.14747023	     -6.64206907	     31.68522620	     46.24796163	      0.00000000	      0.00000000	     26.36777675	    -13.46085693	     14.90505152	     38.78754647	     45.28367623	      0.00000000	      0.00000000
     48.22550000	     -1.41279574	     -4.93288357	     -2.18952763	      0.97208759	      0.91706499	      0.39641616	     26.46201573	     -4.16489718	     -2.95666731	     55.24910862	     55.24910862	      7.78732954	    -17.53826470	      2.58005506	     15.87925657	     -2.49042640	     -3.31932715	     32.90226773	     32.90226773	     20.79520691	    -16.73080180	      4.74817637	    -10.94164857	      6.06332689	      1.81001113	      7.09050454	    -12.82195813	     -6.95740915	     28.22778888	     46.40081753	      0.00000000	      0.00000000	     26.71063681	    -14.26189112	     12.24601595	     41.57141032	     45.64590202	      0.00000000	      0.00000000
     48.24500000	     -1.56738239	     -5.03658867	     -3.02181950	      0.97161762	      0.91851032	      0.39738967	     26.86630885	     -3.63795540	     -2.71563489	     52.06953755	     52.06953755	      8.30126270	    -16.63465931	      2.14073804	     15.06148728	     -2.74235868	     -4.03312699	     32.00082520	     32.00082520	     20.83197176	    -16.64485160	      4.83115900	    -10.96708862	      6.36109649	      1.97080301	      4.42111089	    -12.96978254	     -6.98338203	     26.92702282	     46.43591860	      0.00000000	      0.00000000	     28.07830919	    -14.67274460	     11.60463612	     42.79868250	     45.74442532	      0.00000000	      0.00000000
     48.26450000	     -1.92250755	     -5.14721792	     -3.81383189	      0.97111445	      0.91996672	      0.39862218	     27.30218491	     -3.11588362	     -2.67948731	     48.59319030	     48.59319030	      8.82516126	    -15.38741438	      1.94976387	     14.36378702	     -3.00710613	     -4.73444132	     30.90166265	     30.90166265	     20.82801151	    -16.47111505	      4.97132715	    -10.69453488	      6.69358545	      1.61664198	      2.00634014	    -13.01237494	     -7.02477452	     25.97281272	     46.45884964	      0.00000000	      0.00000000	     29.16847627	    -15.44932074	     11.11273322	     43.62166236	     45.81401919	      0.00000000	      0.00000000
     48.28400000	     -1.98660284	     -5.16853868	     -4.62490138	      0.97079228	      0.92205111	      0.39999692	     27.15122628	     -2.77703739	     -2.85288551	     44.72873352	     44.72873352	      9.19320349	    -13.44797509	      1.25075312	     13.18431894	     -3.15936733	     -5.59871097	     29.52665477	     29.52665477	     20.69875264	    -16.16715670	      4.92904089	    -10.87122666	      6.85971236	      1.90664741	     -0.51116023	    -13.27407098	     -7.12484452	     25.01934607	     46.48736948	      0.00000000	      0.00000000	     30.34853814	    -15.81732384	     10.28999796	     45.36576450	     45.92771005	      0.00000000	      0.00000000
     48.30350000	     -2.31276773	     -5.11397040	     -5.37433953	      0.97039335	      0.92355873	      0.40152201	     27.07616221	     -2.52805847	     -3.21919517	     40.54973738	     40.54973738	      8.39277848	    -11.64352648	     -2.16610573	     12.27135492	     -3.23894611	     -6.46373617	     28.02988723	     28.02988723	     19.93543783	    -16.02821455	      3.29038651	    -10.79273482	      7.00400381	      1.45018557	     -2.97743749	    -13.33765840	     -7.81026720	     25.49632637	     46.50736813	      0.00000000	      0.00000000	     30.26666589	    -16.62387391	      7.33325640	     49.14060264	     46.26842428	      0.00000000	      0.00000000
     48.32300000	     -2.67781751	     -5.10908206	     -6.06675372	      0.97005275	      0.92498422	      0.40335584	     26.94538102	     -2.11196591	     -3.48451816	     36.51924168	     36.51924168	      8.51506203	     -9.42034111	     -2.00445754	     11.42093817	     -3.35178437	     -7.20185437	     26.62125338	     26.62125338	     19.85106476	    -15.65034639	      3.44054694	    -10.52451252	      7.18544481	      1.26775693	     -5.06154548	    -13.47173181	     -7.85999350	     24.78146285	     46.52364643	      0.00000000	      0.00000000	     31.34520807	    -17.31493690	      6.86179678	     49.91364554	     46.33256080	      0.00000000	      0.00000000
     48.34250000	     -2.78361756	     -4.88238308	     -6.72085534	      0.97001723	      0.92627555	      0.40509671	     26.48540423	     -2.19678168	     -4.32485787	     32.71614392	     32.71614392	      8.67405450	     -5.78813021	     -2.22419193	     10.25076705	     -3.19054112	     -8.11825885	     25.12231686	     25.12231686	     19.61253038	    -15.12237446	      2.85909395	    -10.62526436	      7.07367941	      1.46630851	     -7.52356292	    -13.65374330	     -8.10923143	     24.86303583	     46.51704261	      0.00000000	      0.00000000	     32.33367062	    -17.73784934	      5.74175360	     51.90783916	     46.47272354	      0.00000000	      0.00000000
     48.36200000	     -3.15078988	     -4.78725272	     -7.27706263	      0.96993716	      0.92689533	      0.40722168	     26.14944978	     -1.84673453	     -4.62316814	     28.97553422	     28.97553422	      8.47334579	     -3.51548410	     -1.67935173	      9.52233301	     -3.19061684	     -8.75917639	     23.92286475	     23.92286475	     19.53290303	    -14.74495937	      2.76463799	    -10.32079988	      7.19535309	      1.27057804	     -9.38258608	    -13.66010651	     -8.22324063	     24.64340406	     46.51718860	      0.00000000	      0.00000000	     33.26284692	    -18.43171817	      5.16690037	     52.86309309	     46.54490814	      0.00000000	      0.00000000
     48.38150000	     -3.18726817	     -4.64560072	     -7.79649122	      0.97032434	      0.92749256	      0.40945014	     25.43522853	     -1.73669480	     -5.35314005	     25.67151671	     25.67151671	      8.33165932	     -0.42158116	     -1.12976520	      8.36684871	     -3.09656352	     -9.49039365	     22.65032405	     22.65032405	     19.49379676	    -14.19339234	      2.33826843	    -10.44875388	      7.16390866	      1.35498431	    -11.45798530	    -13.74855159	     -8.42781364	     24.77679363	     46.50609268	      0.00000000	      0.00000000	     34.21426649	    -18.93182532	      4.32504231	     54.44103599	     46.64846028	      0.00000000	      0.00000000
